<svg width="9" height="9" viewBox="0 0 9 9" fill="none" xmlns="http://www.w3.org/2000/svg">
<path d="M8.67452 1.09137C8.88605 0.879836 8.88605 0.536871 8.67452 0.325338C8.46299 0.113804 8.12002 0.113804 7.90849 0.325338L4.49984 3.73399L1.09119 0.325338C0.879653 0.113804 0.536688 0.113804 0.325154 0.325338C0.11362 0.536871 0.11362 0.879836 0.325154 1.09137L3.7338 4.50002L0.325155 7.90867C0.11362 8.1202 0.11362 8.46317 0.325155 8.6747C0.536688 8.88624 0.879653 8.88624 1.09119 8.6747L4.49984 5.26605L7.90849 8.6747C8.12002 8.88624 8.46299 8.88624 8.67452 8.6747C8.88605 8.46317 8.88605 8.1202 8.67452 7.90867L5.26587 4.50002L8.67452 1.09137Z" fill="#464A54"/>
</svg>
