<svg width="24" height="24" viewBox="0 0 24 24" fill="none" xmlns="http://www.w3.org/2000/svg">
<path fill-rule="evenodd" clip-rule="evenodd" d="M14.8785 3.70711C16.05 2.53554 17.9495 2.53554 19.1211 3.70711L20.2927 4.87868C21.4643 6.05026 21.4643 7.94975 20.2927 9.12132L9.13509 20.2789C8.71629 20.6977 8.18289 20.9832 7.60212 21.0993L4.66678 21.6864C3.26734 21.9663 2.0335 20.7325 2.31339 19.333L2.90045 16.3977C3.01661 15.8169 3.30208 15.2835 3.72088 14.8647L14.8785 3.70711ZM17.7069 5.12132C17.3164 4.7308 16.6832 4.7308 16.2927 5.12132L5.13509 16.2789C4.99549 16.4185 4.90033 16.5963 4.86162 16.7899L4.27455 19.7252L7.20989 19.1382C7.40348 19.0995 7.58128 19.0043 7.72088 18.8647L18.8785 7.70711C19.269 7.31658 19.269 6.68342 18.8785 6.2929L17.7069 5.12132Z" fill="#464A54"/>
<path fill-rule="evenodd" clip-rule="evenodd" d="M13.9998 21C13.9998 20.4477 14.4475 20 14.9998 20H19.9998C20.5521 20 20.9998 20.4477 20.9998 21C20.9998 21.5523 20.5521 22 19.9998 22H14.9998C14.4475 22 13.9998 21.5523 13.9998 21Z" fill="#464A54"/>
</svg>
